{"title":"The Wolverine [Extended Cut] (2013) BRRip 720p x264 [Dual Audio]","uid":9420554,"size":1531299180,"categoryP":"video","categoryS":"hd___movies","magnet":"?xt=urn:btih:ce89241a18fcebab19eff4dd8051c4a336d3cf2d&amp;dn=The+Wolverine+%5BExtended+Cut%5D+%282013%29+BRRip+720p+x264+%5BDual+Audio%5D&amp;tr=udp%3A%2F%2Ftracker.openbittorrent.com%3A80&amp;tr=udp%3A%2F%2Fopen.demonii.com%3A1337&amp;tr=udp%3A%2F%2Ftracker.coppersurfer.tk%3A6969&amp;tr=udp%3A%2F%2Fexodus.desync.com%3A6969","seeders":0,"leechers":1,"uploader":"saurabh92","files":2,"time":1388581492,"description":"General\nUnique ID                        : 246320887434098750463014524231515592808 (0xB94FAD63C7172E859E9DF910D4BB5868)\nComplete name                    : The Wolverine [Extended Cut] (2013) BRRip 720p x264 [Dual Audio][Hindi BD 5.1+English 5.1]-{TorrentM@fia}\nFormat                           : Matroska\nFormat version                   : Version 4 / Version 2\nFile size                        : 1.37 GiB\nDuration                         : 2h 18mn\nOverall bit rate                 : 1 419 Kbps\nMovie name                       : The Wolverine [Extended Cut] (2013) BRRip 720p x264 [Dual Audio][Hindi BD 5.1+English 5.1]-{TorrentM@fia}\nEncoded date                     : UTC 2013-12-29 13:01:11\nWriting application              : mkvmerge v6.6.0 ('The Edge Of The In Between') built on Dec  1 2013 17:55:00\nWriting library                  : libebml v1.3.0 + libmatroska v1.4.1\n\nVideo\nID                               : 1\nFormat                           : AVC\nFormat/Info                      : Advanced Video Codec\nFormat profile                   : High &lt;a class=&quot;__cf_email__&quot; href=&quot;/cdn-cgi/l/email-protection&quot; data-cfemail=&quot;95a4a5d5d9a1bba4&quot;&gt;[email&amp;#160;protected]&lt;/a&gt;&lt;script cf-hash='f9e31' type=&quot;text/javascript&quot;&gt;\n/* &lt;![CDATA[ */!function(){try{var t=&quot;currentScript&quot;in document?document.currentScript:function(){for(var t=document.getElementsByTagName(&quot;script&quot;),e=t.length;e--;)if(t[e].getAttribute(&quot;cf-hash&quot;))return t[e]}();if(t&amp;&amp;t.previousSibling){var e,r,n,i,c=t.previousSibling,a=c.getAttribute(&quot;data-cfemail&quot;);if(a){for(e=&quot;&quot;,r=parseInt(a.substr(0,2),16),n=2;a.length-n;n+=2)i=parseInt(a.substr(n,2),16)^r,e+=String.fromCharCode(i);e=document.createTextNode(e),c.parentNode.replaceChild(e,c)}}}catch(u){}}();/* ]]&gt; */&lt;/script&gt;\nFormat settings, CABAC           : Yes\nFormat settings, ReFrames        : 4 frames\nFormat settings, GOP             : M=4, N=53\nCodec ID                         : V_MPEG4/ISO/AVC\nDuration                         : 2h 18mn\nBit rate                         : 779 Kbps\nWidth                            : 1 280 pixels\nHeight                           : 536 pixels\nDisplay aspect ratio             : 2.40:1\nFrame rate                       : 23.976 fps\nColor space                      : YUV\nChroma subsampling               : 4:2:0\nBit depth                        : 10 bits\nScan type                        : Progressive\nBits/(Pixel*Frame)               : 0.047\nStream size                      : 743 MiB (53%)\nTitle                            : The Wolverine [Extended Cut] (2013) BRRip 720p x264 [Dual Audio][Hindi BD 5.1+English 5.1]-{TorrentM@fia}\nWriting library                  : x264 core 138 r2358 9e941d1\nEncoding settings                : cabac=1 / ref=3 / deblock=1:-3:-1 / analyse=0x3:0x113 / me=hex / subme=7 / psy=1 / psy_rd=1.00:0.20 / mixed_ref=1 / me_range=16 / chroma_me=1 / trellis=1 / 8x8dct=1 / cqm=0 / deadzone=21,11 / fast_pskip=1 / chroma_qp_offset=-5 / threads=6 / lookahead_threads=1 / sliced_threads=0 / nr=0 / decimate=1 / interlaced=0 / bluray_compat=0 / constrained_intra=0 / bframes=3 / b_pyramid=2 / b_adapt=1 / b_bias=0 / direct=1 / weightb=1 / open_gop=0 / weightp=2 / keyint=240 / keyint_min=23 / scenecut=40 / intra_refresh=0 / rc_lookahead=40 / rc=2pass / mbtree=1 / bitrate=779 / ratetol=1.0 / qcomp=0.60 / qpmin=0 / qpmax=81 / qpstep=4 / cplxblur=20.0 / qblur=0.5 / vbv_maxrate=50000 / vbv_bufsize=50000 / nal_hrd=none / ip_ratio=1.40 / aq=1:1.00\nLanguage                         : English\n\nAudio #1\nID                               : 2\nFormat                           : AC-3\nFormat/Info                      : Audio Coding 3\nMode extension                   : CM (complete main)\nCodec ID                         : A_AC3\nDuration                         : 2h 18mn\nBit rate mode                    : Constant\nBit rate                         : 448 Kbps\nChannel(s)                       : 6 channels\nChannel positions                : Front: L C R, Side: L R, LFE\nSampling rate                    : 48.0 KHz\nBit depth                        : 16 bits\nCompression mode                 : Lossy\nStream size                      : 443 MiB (32%)\nTitle                            : {TorrentM@fia}\nLanguage                         : Hindi\n\nAudio #2\nID                               : 3\nFormat                           : AC-3\nFormat/Info                      : Audio Coding 3\nMode extension                   : CM (complete main)\nCodec ID                         : A_AC3\nDuration                         : 2h 18mn\nBit rate mode                    : Constant\nBit rate                         : 192 Kbps\nChannel(s)                       : 6 channels\nChannel positions                : Front: L C R, Side: L R, LFE\nSampling rate                    : 48.0 KHz\nBit depth                        : 16 bits\nCompression mode                 : Lossy\nStream size                      : 190 MiB (14%)\nTitle                            : {TorrentM@fia}\nLanguage                         : English\n\n\n\n\nPLEASE KEEP SEEDING..........\n\n","torrent":{"xt":"urn:btih:ce89241a18fcebab19eff4dd8051c4a336d3cf2d","amp;dn":"The+Wolverine+%5BExtended+Cut%5D+%282013%29+BRRip+720p+x264+%5BDual+Audio%5D","amp;tr":["udp%3A%2F%2Ftracker.openbittorrent.com%3A80","udp%3A%2F%2Fopen.demonii.com%3A1337","udp%3A%2F%2Ftracker.coppersurfer.tk%3A6969","udp%3A%2F%2Fexodus.desync.com%3A6969"],"infoHash":"ce89241a18fcebab19eff4dd8051c4a336d3cf2d","infoHashBuffer":{"type":"Buffer","data":[206,137,36,26,24,252,235,171,25,239,244,221,128,81,196,163,54,211,207,45]},"announce":[],"urlList":[]}}